<svg width="123" height="161" viewBox="0 0 123 161" fill="none" xmlns="http://www.w3.org/2000/svg">
<path d="M3 133C8.6626 133 10.5 133 12.5 133" stroke="black" stroke-width="5" stroke-linecap="round"/>
<path d="M21 133.04C26.6626 133.04 28.5 133.04 30.5 133.04" stroke="black" stroke-width="5" stroke-linecap="round"/>
<path d="M38.5 133.04H61C61 133.04 70 120.54 71 119.04C72 117.54 75.5 159.04 76.5 157.54C77.5 156.04 88 132.04 89 134.04C90 136.04 96 146.579 96.5 145.54C97 144.5 101.5 133.378 103 133.04C104.5 132.701 120 133.04 120 133.04" stroke="black" stroke-width="5" stroke-linecap="round"/>
<path d="M78.5 71.5C75.1926 71.7049 72.5 65.5 72.5 65.5L67.5 70C67.5 70 73.5776 74.5642 75.5 79C75.9911 80.1331 76.3122 80.7794 76.5 82C77.5 88.5 76.8513 92.9721 77 100C77.1116 105.275 77.5 113.5 77.5 113.5C77.5 113.5 77.7587 124.162 78 126C78.2413 127.838 79 128 79.5 128H82C82 128 83 128.156 83.5 126C84 123.844 84.5 113.5 84.5 113.5L85 103.5V100C85 99.5 87.5 99.5 87.5 100V103.5V113.5C87.5 113.5 88.0556 124 88.5 126C88.9444 128 90 128 90 128C90 128 91 128.442 92 128C92.9924 127.561 92.9999 127.538 93.4886 126.035L93.5 126C94 124.462 95 113.5 95 113.5V103.5L95.5 82C95.5 82 96.8974 82.7318 97.5 83.5C98.3774 84.6185 98.7935 85.5935 99 87C99.2269 88.5455 99.5 91 99.5 91V94C99.5 95 99.6268 95.5634 100.5 96C101.5 96.5 101.5 96.5 102.5 96C103.281 95.6095 103.5 95 103.5 94C103.5 93 103.562 92.1699 103.5 91C103.417 89.428 103 87 103 87L102.5 83.5C102.5 83.5 102.086 81.6716 101.5 80.5C100.914 79.3284 100.707 78.6025 100 77.5C99.1901 76.2375 98.5836 75.614 97.5522 74.5537L97.5 74.5C96.2448 73.2095 95.556 72.4054 94 71.5C92.558 70.661 91.6227 70.3875 90 70C86.9613 69.2743 85.0066 69.1511 82 70C80.5689 70.4041 79.9842 71.4081 78.5 71.5Z" fill="black" stroke="black"/>
<circle cx="43" cy="12" r="12" fill="black"/>
<path d="M19.5 69C20.5 68 20.6706 67.6471 21 66C21.5 63.5 22.0097 61.9515 22.5 59.5C23 57 22.6464 58.5607 23 57.5C23.5 56 24 53.5 24 53.5L24.5 50.5C24.5 50.5 24.7955 48.5143 25.5 47.5C26.2133 46.4731 28 45.5 28 45.5V85L28.5 101C28.5 101 28.5 124.5 29 126C29.5 127.5 31.5 127.5 31.5 127.5H37C37 127.5 38.8601 127.282 39 126C39.1399 124.718 40 101 40 101L41 77.5H44.5L45.5 101C45.5 101 46.4608 125.5 46.5 126C46.5392 126.5 46.5 127.334 48 127.5C49.5 127.666 51.4505 127.5 54 127.5C55 127.5 55.8212 126.753 56 126C56.1788 125.247 57.5 101 57.5 101L58.5 85V45.5C58.5 45.5 60.408 46.7224 61 48C61.5976 49.2898 61.5592 49.6486 62 51C62.5174 52.5861 62.6946 53.8599 63 55.5C63.3217 57.2277 63.5 58.2426 63.5 60C63.5 62.5384 64 66 64 66C64 66 64.7233 68.9743 66 69.5C67.2639 70.0204 67.7033 69.9322 69 69.5C70.8338 68.8887 70.992 67.6494 72 66C73.008 64.3506 72.1543 59.2456 71.5 55C71.0383 52.0041 70.5508 50.3433 69.5 47.5C68.6822 45.2869 68.1315 44.0703 67 42C65.6494 39.5289 65.3513 38.1221 63.5 36C61.773 34.0204 61.12 33.0513 59 31.5C55.9689 29.282 54.0865 28.1155 50.5 27C44.72 25.2022 40.8119 25.3083 35 27C32.9808 27.5878 31.8553 28.0097 30 29C27.4161 30.3792 26.1171 31.476 24 33.5C21.4871 35.9024 19.5 39.5 19 40.5C18.5 41.5 16.8874 45.2074 16 48.5C15.1302 51.7272 14 57 14 57C14 57 13 62.5 13 66C13 67.6797 13.5373 68.1743 15 69C16.7004 69.9599 18.1193 70.3807 19.5 69Z" fill="black" stroke="black"/>
<circle cx="86" cy="59" r="9" fill="black"/>
</svg>
